<?xml version="1.0" encoding="utf-8"?><svg viewBox="0 0 502.66 502.66" xmlns="http://www.w3.org/2000/svg" xmlns:xlink="http://www.w3.org/1999/xlink"><style>:root>svg{display:none}:root>svg:target{display:block}</style><svg viewBox="0 0 28 62" id="Rect1" xmlns="http://www.w3.org/2000/svg"><path d="M0 0s0 15 14 15S28 0 28 0v62s0-15-14-15S0 62 0 62V0z"/></svg><svg viewBox="0 0 15 14" id="air" xmlns="http://www.w3.org/2000/svg"><path d="M14.759.149c-.194-.184-.543-.205-1.125-.02-.407.122-3.995 1.554-7.175 2.946C3.608 4.322 1.28 5.406 1.009 5.55c-.31.102-.97.41-1.008.88-.02.307.233.573.698.798.504.266 2.735 1.043 3.2 1.207.155.593 1.105 3.99 1.163 4.194a.862.862 0 00.35.553c.019 0 .038.04.077.061.039.04.116.061.194.061.097 0 .233-.061.35-.143.6-.511 1.628-1.657 1.919-1.984 1.26 1.064 2.657 2.23 2.793 2.373l.019.02c.31.266.64.43.93.43.098 0 .195-.02.292-.061.33-.123.581-.45.659-.921 0-.02.02-.082.058-.205.543-2.516.99-4.746 1.338-6.608.33-1.842.62-3.622.776-4.583.02-.246.058-.43.078-.553.058-.347.077-.736-.136-.92zm-2.735 2.844l-1.958 1.923A461.987 461.987 0 015.74 9.09v.02l-.02.02s0 .021-.019.021c0 .02 0 .02-.019.041v.04c-.078.963-.233 2.6-.29 3.336v-.02c-.059-.205-.97-3.479-1.164-4.154l7.718-5.401c0-.02.039-.041.058-.062.02 0 .02-.02.039-.02.02 0 .02 0 .038-.02 0 .02-.019.06-.058.102z"/></svg><svg viewBox="0 0 21 35" id="btn-next" xmlns="http://www.w3.org/2000/svg"><path fill-rule="evenodd" clip-rule="evenodd" d="M14.651 17.19L.326 2.865 3.19 0l17.19 17.19-2.865 2.865L3.19 34.381.325 31.516 14.651 17.19z"/></svg><svg viewBox="0 0 21 35" id="btn-prev" xmlns="http://www.w3.org/2000/svg"><path fill-rule="evenodd" clip-rule="evenodd" d="M5.73 17.191l14.325 14.325-2.865 2.865L0 17.191l2.865-2.865L17.191 0l2.865 2.865L5.73 17.191z"/></svg><svg viewBox="0 0 502.664 502.664" id="icon" xmlns="http://www.w3.org/2000/svg"><path d="M153.821 358.226L0 274.337v-46.463l153.821-83.414v54.574L46.636 250.523l107.185 53.431v54.272zm26.273 29.358L282.103 115.08h32.227L212.084 387.584h-31.99zm168.749-29.358v-54.272l107.164-52.999-107.164-52.59v-53.927l153.821 83.522v46.183l-153.821 84.083z"/></svg><svg viewBox="0 0 66.915 66.915" id="to-top" xmlns="http://www.w3.org/2000/svg"><path d="M17.284 42.279c.479 0 .959-.171 1.342-.519l15.487-14.037L48.15 43.209a1.994 1.994 0 002.824.138 1.999 1.999 0 00.139-2.824L35.882 23.721a1.985 1.985 0 00-1.541-.647 1.987 1.987 0 00-1.596.493L15.94 38.798a1.999 1.999 0 001.344 3.481z"/><path d="M33.457 66.915c18.449 0 33.458-15.009 33.458-33.458C66.915 15.009 51.906 0 33.457 0 15.009 0 0 15.009 0 33.457c0 18.449 15.009 33.458 33.457 33.458zm0-62.915C49.7 4 62.915 17.215 62.915 33.457c0 16.243-13.215 29.458-29.458 29.458C17.215 62.915 4 49.7 4 33.457 4 17.215 17.215 4 33.457 4z"/></svg></svg>